<svg width="91" height="90" viewBox="0 0 91 90" fill="none" xmlns="http://www.w3.org/2000/svg">
<rect x="0.714233" width="90" height="90" rx="30" fill="#EBEEF3"/>
<path d="M16.2142 66V48C16.2142 46.65 16.4892 45.425 17.0392 44.325C17.5892 43.225 18.3142 42.25 19.2142 41.4V33C19.2142 30.5 20.0892 28.375 21.8392 26.625C23.5892 24.875 25.7142 24 28.2142 24H40.2142C41.3642 24 42.4392 24.213 43.4392 24.639C44.4392 25.065 45.3642 25.652 46.2142 26.4C47.0642 25.65 47.9892 25.063 48.9892 24.639C49.9892 24.215 51.0642 24.002 52.2142 24H64.2142C66.7142 24 68.8392 24.875 70.5892 26.625C72.3392 28.375 73.2142 30.5 73.2142 33V41.4C74.1142 42.25 74.8392 43.225 75.3892 44.325C75.9392 45.425 76.2142 46.65 76.2142 48V66H70.2142V60H22.2142V66H16.2142ZM49.2142 39H67.2142V33C67.2142 32.15 66.9262 31.438 66.3502 30.864C65.7742 30.29 65.0622 30.002 64.2142 30H52.2142C51.3642 30 50.6522 30.288 50.0782 30.864C49.5042 31.44 49.2162 32.152 49.2142 33V39ZM25.2142 39H43.2142V33C43.2142 32.15 42.9262 31.438 42.3502 30.864C41.7742 30.29 41.0622 30.002 40.2142 30H28.2142C27.3642 30 26.6522 30.288 26.0782 30.864C25.5042 31.44 25.2162 32.152 25.2142 33V39ZM22.2142 54H70.2142V48C70.2142 47.15 69.9262 46.438 69.3502 45.864C68.7742 45.29 68.0622 45.002 67.2142 45H25.2142C24.3642 45 23.6522 45.288 23.0782 45.864C22.5042 46.44 22.2162 47.152 22.2142 48V54Z" fill="black"/>
</svg>
