<svg width="90" height="90" viewBox="0 0 90 90" fill="none" xmlns="http://www.w3.org/2000/svg">
<rect width="90" height="90" rx="30" fill="#EBEEF3"/>
<path d="M60.5 72V57M30.5 72V57" stroke="black" stroke-width="5" stroke-linecap="round"/>
<path d="M55.9981 45H34.9981C30.0481 45 27.5731 45 26.0341 46.758C25.1761 47.736 24.7981 49.05 24.6301 51.003C24.3991 53.703 24.2821 55.056 25.1731 56.028C26.0641 57 27.5431 57 30.4981 57H60.4981C63.4531 57 64.9291 57 65.8201 56.028C66.7141 55.056 66.5971 53.706 66.3631 51.003C66.1981 49.053 65.8171 47.739 64.9591 46.758C63.4231 45 60.9481 45 55.9981 45ZM30.4981 33C30.4981 27.39 30.4981 24.588 31.7041 22.5C32.494 21.1319 33.6301 19.9959 34.9981 19.206C37.0861 18 39.8881 18 45.4981 18C51.1081 18 53.9101 18 55.9981 19.206C57.3662 19.9959 58.5022 21.1319 59.2921 22.5C60.4981 24.588 60.4981 27.39 60.4981 33V45H30.4981V33Z" stroke="black" stroke-width="5"/>
</svg>
