<svg width="91" height="90" viewBox="0 0 91 90" fill="none" xmlns="http://www.w3.org/2000/svg">
<rect x="0.285706" width="90" height="90" rx="30" fill="#EBEEF3"/>
<path d="M15.7857 57V66M45.7857 48V30M45.7857 30C45.7857 28.4087 46.4178 26.8826 47.5431 25.7574C48.6683 24.6321 50.1944 24 51.7857 24H63.7857C65.377 24 66.9031 24.6321 68.0283 25.7574C69.1536 26.8826 69.7857 28.4087 69.7857 30V36M45.7857 30C45.7857 28.4087 45.1536 26.8826 44.0283 25.7574C42.9031 24.6321 41.377 24 39.7857 24H27.7857C26.1944 24 24.6683 24.6321 23.5431 25.7574C22.4178 26.8826 21.7857 28.4087 21.7857 30V36" stroke="black" stroke-width="5" stroke-linecap="round" stroke-linejoin="round"/>
<path d="M75.7857 57V66M69.7857 36C68.1944 36 66.6683 36.6321 65.5431 37.7574C64.4178 38.8826 63.7857 40.4087 63.7857 42V48H27.7857V42C27.7857 40.4087 27.1536 38.8826 26.0283 37.7574C24.9031 36.6321 23.377 36 21.7857 36C20.1944 36 18.6683 36.6321 17.5431 37.7574C16.4178 38.8826 15.7857 40.4087 15.7857 42V60H75.7857V42C75.7857 40.4087 75.1536 38.8826 74.0283 37.7574C72.9031 36.6321 71.377 36 69.7857 36Z" stroke="black" stroke-width="5" stroke-linecap="round" stroke-linejoin="round"/>
</svg>
