<svg width="90" height="90" viewBox="0 0 90 90" fill="none" xmlns="http://www.w3.org/2000/svg">
<rect x="-0.00012207" width="90" height="90" rx="30" fill="#EBEEF3"/>
<path d="M27.4999 15C25.9086 15 24.3825 15.6321 23.2572 16.7574C22.132 17.8826 21.4999 19.4087 21.4999 21V66C21.4999 69.33 24.1699 72 27.4999 72V75H33.4999V72H57.4999V75H63.4999V72C66.8299 72 69.4999 69.33 69.4999 66V21C69.4999 19.4087 68.8677 17.8826 67.7425 16.7574C66.6173 15.6321 65.0912 15 63.4999 15H27.4999ZM27.4999 21H42.4999V66H27.4999V21ZM48.4999 21H63.4999V66H48.4999V21ZM33.4999 39V48H39.4999V39H33.4999ZM51.4999 39V48H57.4999V39H51.4999Z" fill="black"/>
</svg>
