<svg width="531" height="171" viewBox="0 0 531 171" fill="none" xmlns="http://www.w3.org/2000/svg">
<path d="M56.836 88.5593C53.1071 88.5593 49.7512 87.9201 46.7681 86.6416C43.7851 85.3099 41.4413 83.4455 39.7366 81.0484C38.032 78.6513 37.1797 75.8547 37.1797 72.6586H46.9279C47.141 75.0557 48.0732 77.0266 49.7246 78.5714C51.4292 80.1162 53.7996 80.8886 56.836 80.8886C59.9788 80.8886 62.4292 80.1428 64.1871 78.6513C65.9449 77.1065 66.8239 75.1356 66.8239 72.7385C66.8239 70.8741 66.2646 69.3559 65.1459 68.184C64.0805 67.0121 62.7222 66.1065 61.0708 65.4673C59.4728 64.828 57.2355 64.1355 54.359 63.3898C50.7367 62.4309 47.7803 61.4721 45.4897 60.5133C43.2524 59.5011 41.3347 57.9563 39.7366 55.8789C38.1386 53.8014 37.3395 51.0314 37.3395 47.5689C37.3395 44.3728 38.1386 41.5762 39.7366 39.1791C41.3347 36.782 43.572 34.9442 46.4485 33.6657C49.325 32.3873 52.6544 31.7481 56.4364 31.7481C61.8166 31.7481 66.2113 33.1064 69.6205 35.8231C73.083 38.4866 75.0007 42.1621 75.3735 46.8498H65.3057C65.1459 44.8256 64.1871 43.0943 62.4292 41.6561C60.6713 40.2178 58.3541 39.4987 55.4776 39.4987C52.8674 39.4987 50.7367 40.1645 49.0853 41.4963C47.434 42.828 46.6083 44.7457 46.6083 47.2493C46.6083 48.9539 47.1144 50.3655 48.1265 51.4842C49.1919 52.5496 50.5236 53.4019 52.1217 54.0411C53.7197 54.6803 55.9038 55.3728 58.6737 56.1186C62.3493 57.1307 65.3323 58.1428 67.6229 59.1549C69.9667 60.167 71.9377 61.7384 73.5358 63.8692C75.1871 65.9467 76.0128 68.7433 76.0128 72.259C76.0128 75.0823 75.2404 77.7457 73.6956 80.2494C72.204 82.753 69.9934 84.7772 67.0636 86.322C64.1871 87.8136 60.7779 88.5593 56.836 88.5593ZM140.057 43.2541C143.519 43.2541 146.609 43.9733 149.325 45.4115C152.095 46.8498 154.253 48.9805 155.797 51.8038C157.396 54.627 158.195 58.0363 158.195 62.0314V88H149.166V63.3898C149.166 59.4479 148.18 56.4382 146.209 54.3607C144.238 52.2299 141.548 51.1646 138.139 51.1646C134.73 51.1646 132.013 52.2299 129.989 54.3607C128.018 56.4382 127.032 59.4479 127.032 63.3898V88H118.003V63.3898C118.003 59.4479 117.018 56.4382 115.047 54.3607C113.076 52.2299 110.386 51.1646 106.977 51.1646C103.567 51.1646 100.851 52.2299 98.8264 54.3607C96.8555 56.4382 95.87 59.4479 95.87 63.3898V88H86.761V43.9733H95.87V49.0072C97.3615 47.196 99.2526 45.7844 101.543 44.7723C103.834 43.7602 106.284 43.2541 108.894 43.2541C112.41 43.2541 115.553 43.9999 118.323 45.4914C121.093 46.983 123.224 49.1403 124.715 51.9636C126.047 49.3002 128.124 47.196 130.948 45.6512C133.771 44.0532 136.807 43.2541 140.057 43.2541ZM166.749 65.7869C166.749 61.3656 167.655 57.4503 169.466 54.0411C171.33 50.6319 173.834 47.9951 176.977 46.1307C180.173 44.213 183.689 43.2541 187.524 43.2541C190.987 43.2541 193.996 43.9466 196.553 45.3316C199.163 46.6633 201.241 48.3413 202.786 50.3655V43.9733H211.975V88H202.786V81.4479C201.241 83.5254 199.137 85.2567 196.473 86.6416C193.81 88.0266 190.774 88.7191 187.364 88.7191C183.582 88.7191 180.12 87.7603 176.977 85.8426C173.834 83.8717 171.33 81.1549 169.466 77.6925C167.655 74.1767 166.749 70.2082 166.749 65.7869ZM202.786 65.9467C202.786 62.9104 202.146 60.2735 200.868 58.0362C199.643 55.799 198.018 54.0944 195.994 52.9224C193.97 51.7505 191.786 51.1646 189.442 51.1646C187.098 51.1646 184.914 51.7505 182.89 52.9224C180.865 54.0411 179.214 55.7191 177.936 57.9563C176.711 60.1404 176.098 62.7505 176.098 65.7869C176.098 68.8232 176.711 71.4866 177.936 73.7772C179.214 76.0678 180.865 77.8256 182.89 79.0508C184.967 80.2227 187.151 80.8087 189.442 80.8087C191.786 80.8087 193.97 80.2227 195.994 79.0508C198.018 77.8789 199.643 76.1743 200.868 73.937C202.146 71.6465 202.786 68.983 202.786 65.9467ZM233.048 50.3655C234.379 48.1282 236.137 46.397 238.321 45.1718C240.559 43.8934 243.195 43.2541 246.232 43.2541V52.6827H243.915C240.346 52.6827 237.629 53.5883 235.764 55.3994C233.953 57.2106 233.048 60.3534 233.048 64.828V88H223.939V43.9733H233.048V50.3655ZM265.232 51.4043V75.7748C265.232 77.4261 265.605 78.6247 266.351 79.3704C267.15 80.0629 268.481 80.4092 270.346 80.4092H275.939V88H268.748C264.646 88 261.503 87.0412 259.319 85.1235C257.135 83.2058 256.043 80.0896 256.043 75.7748V51.4043H250.849V43.9733H256.043V33.0265H265.232V43.9733H275.939V51.4043H265.232Z" fill="#16697A"/>
<path d="M290.327 83.4455H310.383V88H284.734V32.1476H290.327V83.4455ZM321.162 36.1427C320.043 36.1427 319.084 35.7432 318.285 34.9442C317.486 34.1452 317.087 33.1597 317.087 31.9878C317.087 30.8158 317.486 29.857 318.285 29.1112C319.084 28.3122 320.043 27.9127 321.162 27.9127C322.28 27.9127 323.239 28.3122 324.038 29.1112C324.837 29.857 325.237 30.8158 325.237 31.9878C325.237 33.1597 324.837 34.1452 324.038 34.9442C323.239 35.7432 322.28 36.1427 321.162 36.1427ZM323.958 44.3728V88H318.365V44.3728H323.958ZM352.126 82.5666L366.828 44.3728H372.741L355.242 88H348.929L331.431 44.3728H337.423L352.126 82.5666ZM383.118 36.1427C381.999 36.1427 381.041 35.7432 380.242 34.9442C379.443 34.1452 379.043 33.1597 379.043 31.9878C379.043 30.8158 379.443 29.857 380.242 29.1112C381.041 28.3122 381.999 27.9127 383.118 27.9127C384.237 27.9127 385.196 28.3122 385.995 29.1112C386.794 29.857 387.193 30.8158 387.193 31.9878C387.193 33.1597 386.794 34.1452 385.995 34.9442C385.196 35.7432 384.237 36.1427 383.118 36.1427ZM385.915 44.3728V88H380.321V44.3728H385.915ZM419.036 43.5737C424.256 43.5737 428.518 45.1984 431.82 48.4478C435.123 51.644 436.774 56.305 436.774 62.4309V88H431.261V63.0702C431.261 58.3292 430.063 54.7069 427.665 52.2033C425.322 49.6997 422.099 48.4478 417.997 48.4478C413.789 48.4478 410.433 49.7796 407.929 52.443C405.426 55.1065 404.174 59.0217 404.174 64.1888V88H398.581V44.3728H404.174V51.8038C405.559 49.1403 407.556 47.1161 410.167 45.7311C412.777 44.2929 415.733 43.5737 419.036 43.5737ZM467.442 43.7336C471.544 43.7336 475.113 44.6924 478.149 46.6101C481.186 48.5278 483.37 50.9515 484.701 53.8813V44.3728H490.295V89.1186C490.295 93.1138 489.416 96.6562 487.658 99.7458C485.953 102.835 483.556 105.206 480.467 106.857C477.377 108.562 473.861 109.414 469.919 109.414C464.326 109.414 459.665 108.082 455.936 105.419C452.261 102.755 449.97 99.1332 449.065 94.5521H454.578C455.537 97.5884 457.348 100.012 460.011 101.823C462.728 103.634 466.031 104.54 469.919 104.54C472.743 104.54 475.273 103.927 477.51 102.702C479.747 101.53 481.505 99.7724 482.784 97.4286C484.062 95.0848 484.701 92.3148 484.701 89.1186V78.3317C483.316 81.3148 481.106 83.7918 478.069 85.7627C475.086 87.6804 471.544 88.6392 467.442 88.6392C463.447 88.6392 459.852 87.707 456.655 85.8426C453.513 83.9782 451.036 81.3414 449.224 77.9322C447.466 74.523 446.588 70.5811 446.588 66.1065C446.588 61.6319 447.466 57.7166 449.224 54.3607C451.036 50.9515 453.513 48.3413 456.655 46.5302C459.852 44.6658 463.447 43.7336 467.442 43.7336ZM484.701 66.1864C484.701 62.6706 483.982 59.581 482.544 56.9176C481.106 54.2542 479.135 52.2033 476.631 50.765C474.181 49.3268 471.464 48.6077 468.481 48.6077C465.391 48.6077 462.621 49.3002 460.171 50.6851C457.721 52.0701 455.776 54.0944 454.338 56.7578C452.953 59.368 452.261 62.4842 452.261 66.1065C452.261 69.6755 452.953 72.8184 454.338 75.5351C455.776 78.1985 457.721 80.2494 460.171 81.6876C462.621 83.0726 465.391 83.7651 468.481 83.7651C471.464 83.7651 474.181 83.046 476.631 81.6077C479.135 80.1695 481.106 78.1186 482.544 75.4552C483.982 72.7917 484.701 69.7021 484.701 66.1864Z" fill="#16697A" fill-opacity="0.65"/>
<path d="M501.308 111.001C319.503 137.866 216.032 138.101 28.7827 111.001C28.7827 111.001 138.948 142.503 265.185 142.503C391.423 142.503 501.308 111.001 501.308 111.001Z" fill="#1E5C68"/>
<path d="M275.058 163.809C274.261 163.809 273.545 163.67 272.91 163.393C272.286 163.104 271.795 162.711 271.437 162.215C271.079 161.706 270.894 161.123 270.882 160.465H272.563C272.621 161.031 272.852 161.51 273.256 161.903C273.672 162.284 274.272 162.474 275.058 162.474C275.809 162.474 276.398 162.29 276.825 161.92C277.264 161.539 277.484 161.054 277.484 160.465C277.484 160.003 277.357 159.627 277.102 159.338C276.848 159.05 276.531 158.83 276.149 158.68C275.768 158.53 275.254 158.368 274.607 158.195C273.81 157.987 273.169 157.779 272.684 157.571C272.211 157.363 271.801 157.04 271.454 156.601C271.119 156.15 270.952 155.55 270.952 154.799C270.952 154.141 271.119 153.557 271.454 153.049C271.789 152.541 272.257 152.148 272.858 151.871C273.47 151.594 274.169 151.455 274.954 151.455C276.086 151.455 277.01 151.738 277.726 152.304C278.454 152.87 278.864 153.621 278.956 154.556H277.224C277.166 154.094 276.923 153.69 276.496 153.344C276.069 152.986 275.503 152.807 274.798 152.807C274.14 152.807 273.603 152.98 273.187 153.326C272.771 153.661 272.563 154.135 272.563 154.747C272.563 155.186 272.684 155.544 272.927 155.821C273.181 156.099 273.487 156.312 273.845 156.462C274.215 156.601 274.729 156.763 275.387 156.947C276.184 157.167 276.825 157.386 277.31 157.606C277.795 157.814 278.211 158.143 278.558 158.593C278.904 159.032 279.078 159.633 279.078 160.395C279.078 160.984 278.922 161.539 278.61 162.059C278.298 162.578 277.836 163 277.224 163.323C276.611 163.647 275.89 163.809 275.058 163.809ZM292.816 154.019C293.555 154.019 294.213 154.175 294.791 154.487C295.368 154.788 295.824 155.244 296.159 155.856C296.494 156.468 296.662 157.213 296.662 158.091V163.687H295.103V158.316C295.103 157.369 294.866 156.647 294.392 156.15C293.93 155.642 293.301 155.388 292.504 155.388C291.684 155.388 291.031 155.654 290.546 156.185C290.061 156.705 289.818 157.461 289.818 158.455V163.687H288.259V158.316C288.259 157.369 288.022 156.647 287.548 156.15C287.086 155.642 286.457 155.388 285.66 155.388C284.84 155.388 284.187 155.654 283.702 156.185C283.217 156.705 282.974 157.461 282.974 158.455V163.687H281.398V154.193H282.974V155.561C283.286 155.065 283.702 154.684 284.222 154.418C284.753 154.152 285.336 154.019 285.972 154.019C286.769 154.019 287.473 154.198 288.086 154.556C288.698 154.915 289.154 155.44 289.454 156.133C289.72 155.463 290.159 154.943 290.771 154.574C291.383 154.204 292.065 154.019 292.816 154.019ZM298.659 158.905C298.659 157.935 298.855 157.086 299.248 156.358C299.641 155.619 300.178 155.047 300.859 154.643C301.553 154.239 302.321 154.037 303.164 154.037C303.995 154.037 304.717 154.216 305.33 154.574C305.942 154.932 306.398 155.382 306.698 155.925V154.193H308.292V163.687H306.698V161.92C306.386 162.474 305.919 162.936 305.295 163.306C304.683 163.664 303.967 163.843 303.147 163.843C302.303 163.843 301.541 163.635 300.859 163.219C300.178 162.804 299.641 162.22 299.248 161.47C298.855 160.719 298.659 159.864 298.659 158.905ZM306.698 158.923C306.698 158.206 306.554 157.583 306.265 157.051C305.976 156.52 305.584 156.116 305.087 155.839C304.602 155.55 304.065 155.405 303.476 155.405C302.887 155.405 302.35 155.544 301.864 155.821C301.379 156.099 300.992 156.503 300.704 157.034C300.415 157.565 300.27 158.189 300.27 158.905C300.27 159.633 300.415 160.268 300.704 160.811C300.992 161.342 301.379 161.753 301.864 162.041C302.35 162.319 302.887 162.457 303.476 162.457C304.065 162.457 304.602 162.319 305.087 162.041C305.584 161.753 305.976 161.342 306.265 160.811C306.554 160.268 306.698 159.639 306.698 158.923ZM312.533 155.735C312.811 155.192 313.203 154.77 313.712 154.47C314.231 154.17 314.861 154.019 315.6 154.019V155.648H315.184C313.417 155.648 312.533 156.607 312.533 158.524V163.687H310.957V154.193H312.533V155.735ZM319.343 155.492V161.088C319.343 161.55 319.441 161.88 319.638 162.076C319.834 162.261 320.175 162.353 320.66 162.353H321.821V163.687H320.4C319.522 163.687 318.864 163.485 318.425 163.081C317.986 162.677 317.767 162.012 317.767 161.088V155.492H316.536V154.193H317.767V151.802H319.343V154.193H321.821V155.492H319.343ZM337.654 151.611V163.687H336.078V158.212H329.927V163.687H328.35V151.611H329.927V156.913H336.078V151.611H337.654ZM344.487 163.843C343.598 163.843 342.789 163.641 342.062 163.237C341.346 162.833 340.78 162.261 340.364 161.522C339.96 160.771 339.757 159.904 339.757 158.923C339.757 157.952 339.965 157.098 340.381 156.358C340.809 155.608 341.386 155.036 342.114 154.643C342.841 154.239 343.656 154.037 344.557 154.037C345.458 154.037 346.272 154.239 347 154.643C347.727 155.036 348.299 155.602 348.715 156.341C349.142 157.08 349.356 157.941 349.356 158.923C349.356 159.904 349.137 160.771 348.698 161.522C348.27 162.261 347.687 162.833 346.948 163.237C346.208 163.641 345.388 163.843 344.487 163.843ZM344.487 162.457C345.053 162.457 345.585 162.324 346.081 162.059C346.578 161.793 346.977 161.394 347.277 160.863C347.589 160.332 347.745 159.685 347.745 158.923C347.745 158.16 347.594 157.513 347.294 156.982C346.994 156.451 346.601 156.058 346.116 155.804C345.631 155.538 345.105 155.405 344.539 155.405C343.962 155.405 343.431 155.538 342.945 155.804C342.472 156.058 342.091 156.451 341.802 156.982C341.513 157.513 341.369 158.16 341.369 158.923C341.369 159.697 341.507 160.349 341.785 160.88C342.073 161.412 342.454 161.81 342.928 162.076C343.402 162.33 343.921 162.457 344.487 162.457ZM362.847 154.019C363.586 154.019 364.244 154.175 364.822 154.487C365.399 154.788 365.856 155.244 366.191 155.856C366.526 156.468 366.693 157.213 366.693 158.091V163.687H365.134V158.316C365.134 157.369 364.897 156.647 364.423 156.15C363.961 155.642 363.332 155.388 362.535 155.388C361.715 155.388 361.062 155.654 360.577 156.185C360.092 156.705 359.849 157.461 359.849 158.455V163.687H358.29V158.316C358.29 157.369 358.053 156.647 357.58 156.15C357.118 155.642 356.488 155.388 355.691 155.388C354.871 155.388 354.218 155.654 353.733 156.185C353.248 156.705 353.006 157.461 353.006 158.455V163.687H351.429V154.193H353.006V155.561C353.318 155.065 353.733 154.684 354.253 154.418C354.784 154.152 355.368 154.019 356.003 154.019C356.8 154.019 357.505 154.198 358.117 154.556C358.729 154.915 359.185 155.44 359.486 156.133C359.751 155.463 360.19 154.943 360.802 154.574C361.414 154.204 362.096 154.019 362.847 154.019ZM377.942 158.576C377.942 158.876 377.925 159.194 377.89 159.529H370.302C370.359 160.465 370.677 161.198 371.255 161.729C371.844 162.249 372.554 162.509 373.386 162.509C374.067 162.509 374.633 162.353 375.084 162.041C375.546 161.718 375.869 161.291 376.054 160.759H377.752C377.498 161.672 376.989 162.417 376.227 162.994C375.465 163.56 374.518 163.843 373.386 163.843C372.485 163.843 371.676 163.641 370.96 163.237C370.255 162.833 369.701 162.261 369.297 161.522C368.892 160.771 368.69 159.904 368.69 158.923C368.69 157.941 368.887 157.08 369.279 156.341C369.672 155.602 370.221 155.036 370.925 154.643C371.642 154.239 372.462 154.037 373.386 154.037C374.287 154.037 375.084 154.233 375.777 154.626C376.47 155.019 377.001 155.561 377.371 156.254C377.752 156.936 377.942 157.71 377.942 158.576ZM376.314 158.247C376.314 157.646 376.181 157.132 375.915 156.705C375.65 156.266 375.286 155.937 374.824 155.717C374.373 155.486 373.871 155.371 373.316 155.371C372.519 155.371 371.838 155.625 371.272 156.133C370.717 156.641 370.4 157.346 370.319 158.247H376.314ZM381.652 161.504L379.712 166.165H378.655L379.92 161.504H381.652ZM391.906 163.809C391.109 163.809 390.393 163.67 389.758 163.393C389.134 163.104 388.643 162.711 388.285 162.215C387.927 161.706 387.742 161.123 387.731 160.465H389.411C389.469 161.031 389.7 161.51 390.105 161.903C390.52 162.284 391.121 162.474 391.906 162.474C392.657 162.474 393.246 162.29 393.674 161.92C394.113 161.539 394.332 161.054 394.332 160.465C394.332 160.003 394.205 159.627 393.951 159.338C393.697 159.05 393.379 158.83 392.998 158.68C392.617 158.53 392.103 158.368 391.456 158.195C390.659 157.987 390.018 157.779 389.533 157.571C389.059 157.363 388.649 157.04 388.303 156.601C387.968 156.15 387.8 155.55 387.8 154.799C387.8 154.141 387.968 153.557 388.303 153.049C388.638 152.541 389.105 152.148 389.706 151.871C390.318 151.594 391.017 151.455 391.802 151.455C392.934 151.455 393.858 151.738 394.575 152.304C395.302 152.87 395.712 153.621 395.805 154.556H394.072C394.014 154.094 393.772 153.69 393.344 153.344C392.917 152.986 392.351 152.807 391.647 152.807C390.988 152.807 390.451 152.98 390.035 153.326C389.619 153.661 389.411 154.135 389.411 154.747C389.411 155.186 389.533 155.544 389.775 155.821C390.029 156.099 390.336 156.312 390.694 156.462C391.063 156.601 391.577 156.763 392.236 156.947C393.033 157.167 393.674 157.386 394.159 157.606C394.644 157.814 395.06 158.143 395.406 158.593C395.753 159.032 395.926 159.633 395.926 160.395C395.926 160.984 395.77 161.539 395.458 162.059C395.146 162.578 394.684 163 394.072 163.323C393.46 163.647 392.738 163.809 391.906 163.809ZM410.894 154.193L407.931 163.687H406.303L404.016 156.15L401.729 163.687H400.1L397.12 154.193H398.731L400.914 162.163L403.271 154.193H404.882L407.186 162.18L409.335 154.193H410.894ZM421.122 158.576C421.122 158.876 421.105 159.194 421.07 159.529H413.481C413.539 160.465 413.857 161.198 414.434 161.729C415.023 162.249 415.733 162.509 416.565 162.509C417.247 162.509 417.813 162.353 418.263 162.041C418.725 161.718 419.049 161.291 419.233 160.759H420.931C420.677 161.672 420.169 162.417 419.407 162.994C418.644 163.56 417.697 163.843 416.565 163.843C415.664 163.843 414.856 163.641 414.139 163.237C413.435 162.833 412.88 162.261 412.476 161.522C412.072 160.771 411.87 159.904 411.87 158.923C411.87 157.941 412.066 157.08 412.459 156.341C412.852 155.602 413.4 155.036 414.105 154.643C414.821 154.239 415.641 154.037 416.565 154.037C417.466 154.037 418.263 154.233 418.956 154.626C419.649 155.019 420.18 155.561 420.55 156.254C420.931 156.936 421.122 157.71 421.122 158.576ZM419.493 158.247C419.493 157.646 419.36 157.132 419.095 156.705C418.829 156.266 418.465 155.937 418.003 155.717C417.553 155.486 417.05 155.371 416.496 155.371C415.699 155.371 415.017 155.625 414.451 156.133C413.897 156.641 413.579 157.346 413.498 158.247H419.493ZM431.866 158.576C431.866 158.876 431.849 159.194 431.814 159.529H424.225C424.283 160.465 424.601 161.198 425.178 161.729C425.767 162.249 426.478 162.509 427.309 162.509C427.991 162.509 428.557 162.353 429.007 162.041C429.469 161.718 429.793 161.291 429.977 160.759H431.675C431.421 161.672 430.913 162.417 430.151 162.994C429.388 163.56 428.441 163.843 427.309 163.843C426.408 163.843 425.6 163.641 424.884 163.237C424.179 162.833 423.625 162.261 423.22 161.522C422.816 160.771 422.614 159.904 422.614 158.923C422.614 157.941 422.81 157.08 423.203 156.341C423.596 155.602 424.144 155.036 424.849 154.643C425.565 154.239 426.385 154.037 427.309 154.037C428.21 154.037 429.007 154.233 429.7 154.626C430.393 155.019 430.925 155.561 431.294 156.254C431.675 156.936 431.866 157.71 431.866 158.576ZM430.237 158.247C430.237 157.646 430.104 157.132 429.839 156.705C429.573 156.266 429.209 155.937 428.747 155.717C428.297 155.486 427.794 155.371 427.24 155.371C426.443 155.371 425.761 155.625 425.195 156.133C424.641 156.641 424.323 157.346 424.243 158.247H430.237ZM435.87 155.492V161.088C435.87 161.55 435.968 161.88 436.165 162.076C436.361 162.261 436.702 162.353 437.187 162.353H438.348V163.687H436.927C436.049 163.687 435.391 163.485 434.952 163.081C434.513 162.677 434.294 162.012 434.294 161.088V155.492H433.063V154.193H434.294V151.802H435.87V154.193H438.348V155.492H435.87ZM446.454 162.405H450.681V163.687H444.877V151.611H446.454V162.405ZM453.17 152.651C452.87 152.651 452.616 152.547 452.408 152.339C452.2 152.131 452.096 151.877 452.096 151.576C452.096 151.276 452.2 151.022 452.408 150.814C452.616 150.606 452.87 150.502 453.17 150.502C453.459 150.502 453.702 150.606 453.898 150.814C454.106 151.022 454.21 151.276 454.21 151.576C454.21 151.877 454.106 152.131 453.898 152.339C453.702 152.547 453.459 152.651 453.17 152.651ZM453.933 154.193V163.687H452.356V154.193H453.933ZM460.154 162.232L463.1 154.193H464.78L461.055 163.687H459.219L455.494 154.193H457.191L460.154 162.232ZM467.146 152.651C466.846 152.651 466.592 152.547 466.384 152.339C466.176 152.131 466.072 151.877 466.072 151.576C466.072 151.276 466.176 151.022 466.384 150.814C466.592 150.606 466.846 150.502 467.146 150.502C467.435 150.502 467.677 150.606 467.874 150.814C468.082 151.022 468.186 151.276 468.186 151.576C468.186 151.877 468.082 152.131 467.874 152.339C467.677 152.547 467.435 152.651 467.146 152.651ZM467.908 154.193V163.687H466.332V154.193H467.908ZM475.222 154.019C476.377 154.019 477.312 154.372 478.028 155.076C478.744 155.769 479.103 156.774 479.103 158.091V163.687H477.543V158.316C477.543 157.369 477.306 156.647 476.833 156.15C476.359 155.642 475.712 155.388 474.892 155.388C474.061 155.388 473.397 155.648 472.9 156.168C472.415 156.688 472.172 157.444 472.172 158.438V163.687H470.595V154.193H472.172V155.544C472.484 155.059 472.906 154.684 473.437 154.418C473.98 154.152 474.575 154.019 475.222 154.019ZM485.594 154.037C486.414 154.037 487.13 154.216 487.742 154.574C488.366 154.932 488.828 155.382 489.128 155.925V154.193H490.722V163.895C490.722 164.761 490.537 165.53 490.168 166.2C489.798 166.881 489.267 167.412 488.574 167.794C487.892 168.175 487.095 168.365 486.183 168.365C484.935 168.365 483.896 168.071 483.064 167.482C482.232 166.893 481.742 166.09 481.591 165.073H483.151C483.324 165.651 483.682 166.113 484.225 166.459C484.768 166.817 485.42 166.997 486.183 166.997C487.049 166.997 487.754 166.725 488.296 166.182C488.851 165.639 489.128 164.877 489.128 163.895V161.903C488.816 162.457 488.354 162.919 487.742 163.289C487.13 163.658 486.414 163.843 485.594 163.843C484.75 163.843 483.982 163.635 483.289 163.219C482.608 162.804 482.071 162.22 481.678 161.47C481.285 160.719 481.089 159.864 481.089 158.905C481.089 157.935 481.285 157.086 481.678 156.358C482.071 155.619 482.608 155.047 483.289 154.643C483.982 154.239 484.75 154.037 485.594 154.037ZM489.128 158.923C489.128 158.206 488.984 157.583 488.695 157.051C488.406 156.52 488.013 156.116 487.517 155.839C487.032 155.55 486.495 155.405 485.906 155.405C485.316 155.405 484.779 155.544 484.294 155.821C483.809 156.099 483.422 156.503 483.133 157.034C482.845 157.565 482.7 158.189 482.7 158.905C482.7 159.633 482.845 160.268 483.133 160.811C483.422 161.342 483.809 161.753 484.294 162.041C484.779 162.319 485.316 162.457 485.906 162.457C486.495 162.457 487.032 162.319 487.517 162.041C488.013 161.753 488.406 161.342 488.695 160.811C488.984 160.268 489.128 159.639 489.128 158.923Z" fill="#16697A"/>
</svg>
