<svg width="212" height="59" viewBox="0 0 212 59" fill="none" xmlns="http://www.w3.org/2000/svg">
<path d="M23.1386 35.824C21.659 35.824 20.3274 35.5703 19.1437 35.063C17.96 34.5346 17.0299 33.7948 16.3535 32.8436C15.6771 31.8925 15.3389 30.7827 15.3389 29.5145H19.2071C19.2916 30.4657 19.6615 31.2478 20.3168 31.8607C20.9932 32.4737 21.9338 32.7802 23.1386 32.7802C24.3857 32.7802 25.358 32.4843 26.0556 31.8925C26.7531 31.2795 27.1019 30.4974 27.1019 29.5462C27.1019 28.8064 26.8799 28.204 26.436 27.739C26.0133 27.2739 25.4743 26.9146 24.819 26.661C24.1849 26.4073 23.2971 26.1325 22.1557 25.8366C20.7184 25.4561 19.5453 25.0757 18.6364 24.6952C17.7486 24.2936 16.9877 23.6806 16.3535 22.8562C15.7194 22.0319 15.4024 20.9328 15.4024 19.5588C15.4024 18.2906 15.7194 17.1809 16.3535 16.2297C16.9877 15.2785 17.8754 14.5493 19.0168 14.042C20.1583 13.5347 21.4793 13.281 22.9801 13.281C25.115 13.281 26.8588 13.82 28.2116 14.898C29.5855 15.9549 30.3464 17.4134 30.4944 19.2735H26.4995C26.436 18.4703 26.0556 17.7833 25.358 17.2126C24.6605 16.6419 23.741 16.3565 22.5996 16.3565C21.5639 16.3565 20.7184 16.6207 20.0631 17.1492C19.4079 17.6776 19.0803 18.4385 19.0803 19.432C19.0803 20.1084 19.2811 20.6685 19.6827 21.1124C20.1054 21.5352 20.6338 21.8734 21.268 22.127C21.9021 22.3807 22.7687 22.6554 23.8679 22.9514C25.3263 23.353 26.51 23.7546 27.4189 24.1562C28.349 24.5578 29.131 25.1814 29.7652 26.0268C30.4204 26.8512 30.7481 27.9609 30.7481 29.356C30.7481 30.4763 30.4416 31.5331 29.8286 32.5266C29.2367 33.52 28.3595 34.3232 27.197 34.9362C26.0556 35.5281 24.7028 35.824 23.1386 35.824ZM56.1609 17.8467C57.5348 17.8467 58.7608 18.1321 59.8388 18.7028C60.9379 19.2735 61.794 20.119 62.407 21.2392C63.0411 22.3595 63.3581 23.7123 63.3581 25.2976V35.6021H59.7754V25.8366C59.7754 24.2724 59.3843 23.0782 58.6023 22.2538C57.8202 21.4083 56.7527 20.9856 55.3999 20.9856C54.0472 20.9856 52.9692 21.4083 52.1659 22.2538C51.3839 23.0782 50.9928 24.2724 50.9928 25.8366V35.6021H47.41V25.8366C47.41 24.2724 47.019 23.0782 46.2369 22.2538C45.4548 21.4083 44.3874 20.9856 43.0346 20.9856C41.6818 20.9856 40.6038 21.4083 39.8006 22.2538C39.0185 23.0782 38.6275 24.2724 38.6275 25.8366V35.6021H35.013V18.1321H38.6275V20.1295C39.2193 19.4109 39.9697 18.8507 40.8786 18.4491C41.7875 18.0475 42.7598 17.8467 43.7956 17.8467C45.1906 17.8467 46.4377 18.1426 47.5369 18.7345C48.636 19.3263 49.4815 20.1824 50.0733 21.3027C50.6018 20.2458 51.4261 19.4109 52.5464 18.7979C53.6667 18.1638 54.8715 17.8467 56.1609 17.8467ZM66.7527 26.7878C66.7527 25.0334 67.112 23.4798 67.8307 22.127C68.5705 20.7742 69.5639 19.7279 70.811 18.9881C72.0793 18.2272 73.4743 17.8467 74.9962 17.8467C76.3701 17.8467 77.5644 18.1215 78.579 18.6711C79.6147 19.1995 80.4391 19.8653 81.0521 20.6685V18.1321H84.6983V35.6021H81.0521V33.0022C80.4391 33.8265 79.6042 34.5135 78.5473 35.063C77.4904 35.6126 76.2856 35.8874 74.9328 35.8874C73.4321 35.8874 72.0581 35.5069 70.811 34.746C69.5639 33.9639 68.5705 32.8859 67.8307 31.512C67.112 30.1169 66.7527 28.5422 66.7527 26.7878ZM81.0521 26.8512C81.0521 25.6464 80.7984 24.6001 80.2911 23.7123C79.805 22.8245 79.1603 22.1481 78.3571 21.6831C77.5538 21.2181 76.6872 20.9856 75.7572 20.9856C74.8271 20.9856 73.9605 21.2181 73.1573 21.6831C72.3541 22.127 71.6988 22.7928 71.1915 23.6806C70.7053 24.5472 70.4623 25.583 70.4623 26.7878C70.4623 27.9926 70.7053 29.0495 71.1915 29.9584C71.6988 30.8673 72.3541 31.5648 73.1573 32.051C73.9816 32.516 74.8483 32.7485 75.7572 32.7485C76.6872 32.7485 77.5538 32.516 78.3571 32.051C79.1603 31.586 79.805 30.9096 80.2911 30.0218C80.7984 29.1129 81.0521 28.056 81.0521 26.8512ZM93.0602 20.6685C93.5886 19.7808 94.2862 19.0938 95.1528 18.6076C96.0406 18.1004 97.0869 17.8467 98.2917 17.8467V21.588H97.3722C95.956 21.588 94.878 21.9473 94.1382 22.666C93.4195 23.3847 93.0602 24.6318 93.0602 26.4073V35.6021H89.4457V18.1321H93.0602V20.6685ZM105.831 21.0807V30.751C105.831 31.4063 105.979 31.8819 106.275 32.1778C106.592 32.4526 107.12 32.59 107.86 32.59H110.08V35.6021H107.226C105.599 35.6021 104.351 35.2216 103.485 34.4606C102.618 33.6997 102.185 32.4632 102.185 30.751V21.0807H100.124V18.1321H102.185V13.7883H105.831V18.1321H110.08V21.0807H105.831Z" fill="#16697A"/>
<path d="M115.789 33.7948H123.747V35.6021H113.57V13.4396H115.789V33.7948ZM128.024 15.0249C127.58 15.0249 127.2 14.8663 126.883 14.5493C126.566 14.2322 126.407 13.8412 126.407 13.3762C126.407 12.9111 126.566 12.5307 126.883 12.2347C127.2 11.9177 127.58 11.7592 128.024 11.7592C128.468 11.7592 128.849 11.9177 129.166 12.2347C129.483 12.5307 129.641 12.9111 129.641 13.3762C129.641 13.8412 129.483 14.2322 129.166 14.5493C128.849 14.8663 128.468 15.0249 128.024 15.0249ZM129.134 18.2906V35.6021H126.915V18.2906H129.134ZM140.311 33.446L146.145 18.2906H148.491L141.547 35.6021H139.043L132.099 18.2906H134.477L140.311 33.446ZM152.609 15.0249C152.165 15.0249 151.784 14.8663 151.467 14.5493C151.15 14.2322 150.992 13.8412 150.992 13.3762C150.992 12.9111 151.15 12.5307 151.467 12.2347C151.784 11.9177 152.165 11.7592 152.609 11.7592C153.053 11.7592 153.433 11.9177 153.75 12.2347C154.067 12.5307 154.226 12.9111 154.226 13.3762C154.226 13.8412 154.067 14.2322 153.75 14.5493C153.433 14.8663 153.053 15.0249 152.609 15.0249ZM153.718 18.2906V35.6021H151.499V18.2906H153.718ZM166.861 17.9735C168.933 17.9735 170.624 18.6182 171.934 19.9076C173.245 21.1758 173.9 23.0253 173.9 25.4561V35.6021H171.712V25.7098C171.712 23.8286 171.237 22.3912 170.285 21.3978C169.355 20.4043 168.076 19.9076 166.449 19.9076C164.779 19.9076 163.447 20.436 162.454 21.4929C161.46 22.5498 160.964 24.1033 160.964 26.1537V35.6021H158.744V18.2906H160.964V21.2392C161.513 20.1824 162.306 19.3792 163.342 18.8296C164.377 18.2589 165.551 17.9735 166.861 17.9735ZM186.069 18.0369C187.697 18.0369 189.113 18.4174 190.318 19.1784C191.522 19.9393 192.389 20.901 192.917 22.0636V18.2906H195.137V36.0459C195.137 37.6312 194.788 39.0369 194.091 40.2628C193.414 41.4888 192.463 42.4294 191.237 43.0847C190.011 43.7611 188.616 44.0993 187.052 44.0993C184.832 44.0993 182.983 43.5708 181.503 42.514C180.045 41.4571 179.136 40.0198 178.777 38.2019H180.964C181.345 39.4068 182.063 40.3685 183.12 41.0872C184.198 41.8059 185.509 42.1652 187.052 42.1652C188.172 42.1652 189.176 41.9221 190.064 41.436C190.952 40.9709 191.649 40.2734 192.157 39.3434C192.664 38.4133 192.917 37.3142 192.917 36.0459V31.7656C192.368 32.9493 191.491 33.9322 190.286 34.7143C189.102 35.4752 187.697 35.8557 186.069 35.8557C184.484 35.8557 183.057 35.4858 181.789 34.746C180.542 34.0062 179.559 32.9599 178.84 31.6071C178.142 30.2543 177.794 28.6901 177.794 26.9146C177.794 25.1391 178.142 23.5855 178.84 22.2538C179.559 20.901 180.542 19.8653 181.789 19.1466C183.057 18.4068 184.484 18.0369 186.069 18.0369ZM192.917 26.9463C192.917 25.5513 192.632 24.3253 192.061 23.2684C191.491 22.2116 190.709 21.3978 189.715 20.8271C188.743 20.2564 187.665 19.971 186.481 19.971C185.255 19.971 184.156 20.2458 183.184 20.7954C182.211 21.3449 181.44 22.1481 180.869 23.205C180.32 24.2407 180.045 25.4773 180.045 26.9146C180.045 28.3308 180.32 29.5779 180.869 30.6559C181.44 31.7128 182.211 32.5266 183.184 33.0973C184.156 33.6468 185.255 33.9216 186.481 33.9216C187.665 33.9216 188.743 33.6363 189.715 33.0656C190.709 32.4949 191.491 31.6811 192.061 30.6242C192.632 29.5673 192.917 28.3414 192.917 26.9463Z" fill="#16697A" fill-opacity="0.65"/>
<path d="M199.751 45.0312C127.61 55.6912 86.5524 55.7846 12.251 45.0312C12.251 45.0312 55.9651 57.5312 106.057 57.5312C156.148 57.5312 199.751 45.0312 199.751 45.0312Z" fill="#1E5C68"/>
</svg>
